/* XPM */
static char *bfe5f116e48f4251f30d60050e31bb79nYRkZlePMYgpufbs[] = {
/* columns rows colors chars-per-pixel */
"64 64 83 1 ",
"  c None",
". c red",
"X c #FF0101",
"o c #EC2D2D",
"O c #F02323",
"+ c #EB3030",
"@ c #E93333",
"# c #E53E3E",
"$ c #D95858",
"% c #D46464",
"& c #D16A6A",
"* c #FFFE00",
"= c blue",
"- c #0F0FF9",
"; c #1515F6",
": c #3D3DE5",
"> c #3737E8",
", c #4E4EDD",
"< c #4D4DDE",
"1 c #5A5AD8",
"2 c #7272CE",
"3 c #6868D3",
"4 c #4747E1",
"5 c gray55",
"6 c #8D8D8D",
"7 c #8E8E8E",
"8 c gray56",
"9 c #909090",
"0 c gray57",
"q c #939393",
"w c gray58",
"e c gray60",
"r c gray61",
"t c #BF9494",
"y c #9595BF",
"u c #A0A0A0",
"i c #A2A2A2",
"p c #A5A5A5",
"a c #A7A7A7",
"s c gray66",
"d c #AAAAAA",
"f c #ACACAC",
"g c #AFAFAF",
"h c #B8A5A5",
"j c #B5ABAB",
"k c #B6AAAA",
"l c #A0A0BA",
"z c #A4A4B8",
"x c gray69",
"c c #B2B2B2",
"v c gray70",
"b c #B6B6B6",
"n c #BBBBBB",
"m c #BCBCBC",
"M c #8686C6",
"N c #8181C8",
"B c #9292C0",
"V c #C0C0C0",
"C c #C1C1C1",
"Z c gray76",
"A c #C6C6C6",
"S c gray79",
"D c #CACACA",
"F c #CDCDCD",
"G c #CECECE",
"H c gray82",
"J c gray83",
"K c gray84",
"L c #D7D7D7",
"P c #D8D8D8",
"I c gray85",
"U c #DADADA",
"Y c gray86",
"T c gainsboro",
"R c #DDDDDD",
"E c #E4E4E4",
"W c #E7E7E7",
"Q c #E9E9E9",
"! c #ECECEC",
"~ c #EFEFEF",
"^ c #F1F1F1",
"/ c #F3F3F3",
"( c #F4F4F4",
/* pixels */
"                           YYYYYYYYY                            ",
"                       YYYYYYYYYYYYYYYYY                        ",
"                     YY~WYYYYYYYYYYYYYYYYY                      ",
"                   YY//TYYYYYYYYYYYYYYYYYYYY                    ",
"                  YT((YYYYYYYYYYYYYYYYYYYYYYY                   ",
"                 YW/(YYYYYYYYYYYYYYYYYYYYYYYYY                  ",
"                YW((TTYYYYYYYYYYYYYYYYYYYYYYYYY                 ",
"               YT((QYYYYYYYYYYYYYYYYYYYYYYYYYYYY                ",
"               Y(((YYYYYYYYYYYYYYYYYYYYYYYYYYYYY                ",
"              YY((YYYYYYYYYYYYYYYYYYYYYYYYYYYYYYY               ",
"           cccY((/YYYYYYYYYYYYYYYYYYYYYYYYYYYYYYYcccc           ",
"        cccccFY((YYYYYYYYYYYYYYYYYYYYYYYYYYYYYYYYScccccc        ",
"      cccccccYW((YYYYYYYYYYYYYYYYYYYYYYYYYYYYYYYYTccccccccc     ",
"    cccccccccYYY~YYYYYYYYYYYYYYYYYYYYYYYYYYYYYYYYJccccccccccc   ",
"  ccccccccccccnYYYYYYYYYYYYYYYYYYYYYYYYYYYYYYYYYcccccccccccccc  ",
" cccc..@cccccccccZYYYYYYYYYYYYYYYYYYYYYYYYYYYYbcccccccccc:1cccc ",
"cccct...$cccccccccccSYYYYYYYYYTTTTYYYYYYTTJZcccccccccccc===Mcccc",
"ccccc....cccccccccccccccccmAFJJYYJHSZbccccccccccccccccc====ycccc",
"pccccc%#ccccccccccccccccccccccccccccccccccccccccjccccccz==Bccccc",
"5ccccccccccccc===,ccccccccccccccccccccccccccccO...ccccccccccccc5",
" 5rccccccccccc====ccccccj..hccccccccc2lccccccc....cccccccccccc5 ",
"   5fcccccccccc4;ccccccc....ccccccb2===-ccccccco&ccccccccccb05  ",
"    55iccccccccccccccccc@...ccccccv:===,cccccccccccccccccc55    ",
"      555ccccccccccccccccccccccccccxz3ccccccccccccccccce55      ",
"         555sccccccccccccccccccccccccccccccccccccccf555         ",
"            5555gcccccccccccccccccccccccccccccccw555            ",
"                55550igcccccccccccccccccccse5555                ",
"                  YYSa55555555555555555555wbY                   ",
"                    YYYYYYYYYYYYYYYYUTUTYYYY                    ",
"                     YYYYYYYYYYYYYYYUUTUYTY                     ",
"                       YYYYYYYYYYYYYTTUTT                       ",
"                          YYYYYYYYYTTT                          ",
"                                                                ",
"                          **         *                          ",
"                         ****      ****                         ",
"                         *****     *****                        ",
"                         *****     *****                        ",
"                         *****     *****                        ",
"                        *****      *****                        ",
"                        *****      *****                        ",
"                        *****      *****                        ",
"                        *****      ******                       ",
"                        *****      *****                        ",
"                        *****      *****                        ",
"                        *****      *****                        ",
"                        *****       *****                       ",
"                        *****       *****                       ",
"                        ****        *****                       ",
"                       *****        *****                       ",
"                       *****        *****                       ",
"                       *****        *****                       ",
"                       *****        *****                       ",
"                       *****        *****                       ",
"                       *****        *****                       ",
"                       *****        *****                       ",
"                       *****        *****                       ",
"                       *****        *****                       ",
"                       ****         *****                       ",
"                      *****         *****                       ",
"                      *****         *****                       ",
"                      *****         *****                       ",
"                       ****          ****                       ",
"                        **            **                        ",
"                                                                "
};
